<?xml version="1.0" encoding="utf-8"?>
<!-- Generator: Adobe Illustrator 25.2.1, SVG Export Plug-In . SVG Version: 6.00 Build 0)  -->
<svg version="1.1" id="Capa_1" xmlns="http://www.w3.org/2000/svg" xmlns:xlink="http://www.w3.org/1999/xlink" x="0px" y="0px"
	 viewBox="0 0 500 405" style="enable-background:new 0 0 500 405;" xml:space="preserve">
<style type="text/css">
	.st0{fill-rule:evenodd;clip-rule:evenodd;fill:#1F2937;}
</style>
<g>
	<polygon class="st0" points="328.7,129.3 484.9,129.3 486.1,110 334.2,110 	"/>
	<path class="st0" d="M229.3,7.8h-11H16.6v19.3H213l-8.9,33.1H13.9v11h0v47h0v11h171.6l-72.2,267.9h19.3L234.8,7.8H229.3z M33.2,110
		V79.6h165.7l-8.2,30.4H33.2z"/>
	<polygon class="st0" points="469.6,7.8 350.8,7.8 350.2,7.8 334.2,7.8 229.3,397.2 248.6,397.2 345.7,27.1 469.6,27.1 469.6,57.5 
		350.2,57.5 345.3,76.8 469.6,76.8 485,76.8 486.1,76.8 486.1,7.8 	"/>
	<polygon class="st0" points="229.3,60.3 223.8,79.6 281.8,79.6 282.6,74 301.1,7.8 279,7.8 264.3,60.3 	"/>
	<polygon class="st0" points="268,110 248.6,110 215.5,110 210,129.3 243.6,129.3 174,397.2 193.4,397.2 270.7,110 	"/>
</g>
</svg>
