<?xml version="1.0" standalone="no"?>
<!DOCTYPE svg PUBLIC "-//W3C//DTD SVG 20010904//EN"
 "http://www.w3.org/TR/2001/REC-SVG-20010904/DTD/svg10.dtd">
<svg version="1.0" xmlns="http://www.w3.org/2000/svg"
 width="1000.000000pt" height="1000.000000pt" viewBox="0 0 1000.000000 1000.000000"
 preserveAspectRatio="xMidYMid meet">
<metadata>
Created by potrace 1.14, written by Peter Selinger 2001-2017
</metadata>
<g transform="translate(0.000000,1000.000000) scale(0.100000,-0.100000)"
fill="#000000" stroke="none">
<path d="M352 8892 c-22 -3 -22 -4 -22 -193 1 -171 3 -189 18 -190 9 0 893 -1
1963 -1 l1946 -1 -9 -36 c-5 -20 -11 -47 -14 -61 -2 -14 -9 -36 -14 -50 -9
-25 -58 -212 -65 -247 -2 -10 -4 -18 -5 -18 -1 0 -3 -7 -5 -15 -34 -131 -58
-217 -65 -225 -5 -7 -646 -10 -1904 -9 -1332 0 -1896 -3 -1897 -10 0 -6 -1
-314 -1 -684 -1 -467 2 -676 9 -680 6 -4 779 -7 1717 -7 938 0 1706 0 1706 0
0 -4 -125 -462 -151 -554 -11 -41 -22 -81 -24 -91 -2 -9 -10 -41 -19 -71 -9
-30 -16 -54 -15 -54 1 0 -4 -20 -11 -45 -7 -25 -14 -52 -15 -60 -2 -8 -4 -16
-5 -17 -3 -3 -3 -4 -15 -48 -4 -16 -25 -95 -47 -175 -21 -80 -41 -152 -43
-160 -3 -16 -18 -72 -90 -335 -25 -93 -48 -179 -50 -189 -6 -24 -61 -230 -86
-316 -10 -36 -20 -77 -23 -92 -2 -15 -7 -32 -11 -38 -3 -5 -8 -19 -11 -30 -2
-11 -6 -29 -8 -40 -3 -11 -28 -104 -56 -207 -29 -103 -53 -196 -56 -207 -2
-10 -11 -44 -20 -75 -9 -31 -18 -63 -20 -71 -1 -8 -24 -91 -49 -185 -26 -93
-48 -178 -51 -187 -2 -10 -6 -26 -9 -35 -2 -10 -20 -76 -39 -148 -74 -277
-157 -582 -173 -635 -9 -30 -18 -62 -19 -70 -1 -8 -16 -67 -34 -130 -30 -109
-48 -177 -55 -210 -2 -8 -8 -28 -14 -43 -6 -15 -13 -42 -16 -59 -3 -17 -21
-85 -40 -152 -18 -67 -45 -164 -59 -216 -14 -52 -39 -144 -56 -205 -55 -199
-56 -205 -33 -205 136 -4 357 0 363 7 7 7 38 115 44 153 1 8 5 22 8 30 4 8 14
47 23 85 9 39 21 81 26 95 5 14 11 36 13 50 3 14 15 61 27 105 11 44 22 87 24
95 2 8 13 51 25 95 12 44 22 85 24 90 1 6 5 16 9 22 5 7 6 13 3 13 -3 0 2 23
10 52 9 28 17 59 19 67 2 9 15 60 30 114 14 53 28 105 30 115 1 9 20 78 40
152 20 74 39 146 41 160 3 14 9 39 14 55 11 35 99 371 105 399 3 10 9 33 14
50 6 17 12 42 15 56 2 14 19 77 36 140 17 63 33 122 34 130 2 8 11 42 20 75
18 64 19 66 35 135 13 52 16 64 30 108 5 17 7 32 4 32 -3 0 0 7 7 15 7 8 10
15 7 15 -3 0 -1 15 4 33 12 39 60 218 63 232 1 6 5 19 9 30 3 11 9 34 12 50 7
35 13 58 16 65 1 3 3 10 4 15 1 6 7 30 14 55 8 25 15 52 16 60 2 8 4 15 5 15
1 0 4 10 13 50 3 11 17 65 32 120 56 212 66 251 71 275 2 14 9 39 15 56 5 17
11 40 13 50 2 11 9 39 16 64 7 25 14 52 15 60 2 8 4 15 5 15 1 0 3 7 5 15 2 8
11 42 20 75 52 194 88 333 91 350 2 11 53 207 114 435 61 228 112 426 115 440
2 14 9 36 14 50 5 14 20 66 32 115 11 50 37 146 55 215 19 69 36 134 39 145 7
36 13 59 30 120 9 33 17 65 18 70 2 6 6 16 10 23 5 6 6 12 3 12 -2 0 4 33 16
73 11 39 21 79 23 87 2 8 4 15 5 15 1 0 3 9 5 20 2 11 20 79 38 150 49 185 50
189 53 201 1 6 9 36 17 65 9 30 18 65 21 79 3 14 28 111 56 215 43 159 68 255
94 355 2 8 21 78 41 155 60 230 85 329 85 340 0 9 -4274 16 -4338 7z m3620
-1452 c-15 -61 -13 -55 -31 -120 -8 -25 -15 -52 -16 -60 -2 -8 -4 -15 -5 -15
-1 0 -3 -7 -5 -15 -1 -8 -13 -51 -24 -95 -12 -44 -33 -122 -47 -174 -13 -52
-27 -98 -30 -102 -3 -5 -713 -9 -1577 -9 l-1572 0 1 303 c1 166 2 302 3 303 0
0 745 0 1654 0 1463 -1 1652 -3 1649 -16z"/>
<path d="M5588 8888 c-13 -3 -20 -6 -16 -7 4 -1 3 -13 -3 -28 -6 -16 -13 -37
-15 -48 -2 -11 -20 -76 -40 -145 -20 -69 -40 -143 -45 -165 -5 -22 -14 -51
-19 -65 -6 -14 -12 -34 -14 -45 -2 -11 -10 -40 -17 -65 -7 -25 -13 -49 -15
-55 -1 -5 -12 -44 -24 -85 -11 -41 -37 -131 -56 -199 -19 -69 -37 -127 -40
-130 -3 -3 -159 -7 -347 -7 -188 -1 -345 -2 -348 -3 -4 0 -10 -16 -14 -33 -9
-37 -12 -47 -15 -50 -1 -2 -3 -10 -5 -18 -6 -32 -66 -236 -75 -257 -9 -21 -7
-23 23 -24 43 0 1098 -1 1118 0 12 1 18 14 23 49 9 70 14 90 37 167 11 39 21
75 23 80 1 6 8 30 15 55 8 25 14 50 15 55 2 6 9 30 16 55 7 25 14 51 16 58 1
7 9 36 18 65 15 49 96 340 101 362 1 6 5 17 8 25 3 8 15 49 26 90 11 41 33
125 50 185 17 61 33 119 35 130 3 11 5 20 6 20 1 0 3 9 5 20 4 19 -1 20 -200
20 -112 0 -214 -3 -227 -7z"/>
<path d="M6687 8888 c-6 -3 -12 -15 -13 -25 -2 -18 -18 -77 -144 -538 -39
-143 -73 -268 -75 -278 -2 -10 -7 -27 -10 -37 -3 -10 -8 -29 -11 -42 -9 -39
-12 -53 -14 -53 -1 0 -3 -7 -5 -15 -2 -8 -19 -76 -40 -150 -34 -129 -42 -157
-50 -190 -2 -8 -4 -15 -5 -15 -1 0 -3 -7 -5 -16 -1 -10 -19 -75 -38 -145 -20
-71 -49 -181 -66 -244 -16 -63 -36 -136 -44 -162 -8 -27 -13 -48 -11 -48 3 0
0 -8 -5 -19 -6 -10 -13 -31 -16 -47 -3 -16 -17 -69 -31 -119 -14 -49 -28 -103
-31 -120 -3 -16 -11 -48 -18 -70 -14 -43 -44 -155 -51 -192 -2 -12 -9 -35 -15
-50 -6 -16 -12 -35 -14 -43 -2 -8 -13 -51 -25 -95 -12 -44 -23 -89 -25 -100
-3 -11 -32 -119 -65 -240 -33 -121 -65 -242 -71 -270 -6 -27 -16 -56 -21 -62
-6 -7 -8 -13 -4 -13 3 0 1 -11 -4 -25 -5 -14 -12 -36 -14 -48 -3 -12 -7 -31
-10 -42 -3 -11 -10 -36 -15 -55 -5 -19 -18 -68 -29 -108 -12 -40 -21 -74 -22
-77 0 -3 -2 -10 -4 -17 -2 -7 -11 -42 -21 -78 -9 -36 -19 -72 -22 -80 -3 -8
-7 -24 -9 -35 -2 -11 -17 -69 -34 -130 -17 -60 -33 -117 -34 -125 -9 -34 -110
-410 -128 -474 -11 -38 -21 -76 -23 -85 -2 -9 -19 -75 -38 -146 -41 -147 -59
-219 -58 -222 0 -2 -6 -21 -14 -43 -8 -22 -14 -42 -15 -45 0 -3 0 -6 -1 -7 0
-2 -2 -10 -4 -18 -7 -30 -15 -60 -20 -78 -11 -42 -96 -356 -120 -442 -14 -52
-28 -106 -31 -120 -2 -14 -9 -36 -14 -50 -5 -14 -28 -95 -50 -180 -49 -187
-49 -185 -55 -211 -2 -11 -7 -29 -10 -39 -3 -10 -8 -27 -10 -37 -5 -22 -49
-183 -76 -278 -22 -75 -27 -94 -34 -126 -2 -11 -7 -29 -10 -39 -3 -10 -8 -27
-10 -37 -2 -10 -24 -92 -49 -183 -26 -91 -48 -174 -51 -185 -2 -11 -20 -78
-40 -150 -19 -71 -37 -139 -39 -150 -3 -11 -5 -20 -6 -20 -1 0 -3 -7 -5 -15
-2 -8 -12 -49 -24 -90 -12 -41 -21 -79 -21 -85 0 -6 68 -10 190 -10 l190 0 15
55 c8 30 20 71 25 90 23 82 122 467 127 489 2 13 8 31 12 40 5 9 12 36 16 61
4 25 11 52 15 60 4 8 11 29 14 45 3 17 19 82 36 145 17 63 33 125 35 137 3 12
10 34 15 48 5 14 8 25 5 25 -2 0 2 19 11 41 8 23 16 51 19 63 9 43 13 62 25
106 7 25 13 50 14 55 1 6 5 16 9 23 5 6 6 12 3 12 -3 0 2 21 10 47 8 27 17 57
19 68 9 40 15 62 45 175 17 63 33 123 35 134 2 10 11 42 19 70 8 28 17 65 21
83 3 18 10 44 15 58 5 14 12 36 14 48 2 12 21 85 41 162 21 77 39 147 40 155
2 8 4 15 5 15 2 0 5 13 20 75 6 25 13 52 17 60 3 8 7 25 9 38 1 12 10 48 19
80 10 31 17 58 17 59 -1 2 4 17 9 35 6 18 12 40 14 48 1 8 11 44 20 80 9 36
19 72 20 80 2 8 4 16 5 18 2 1 3 5 4 10 14 61 31 125 42 159 7 23 15 53 18 67
2 14 14 58 25 99 11 40 22 84 25 98 3 13 14 56 25 94 17 63 58 215 127 485 35
133 78 298 109 415 15 55 29 111 32 124 2 14 6 28 9 33 3 5 7 18 10 31 2 12
24 99 50 192 25 94 47 181 50 195 3 14 21 84 40 155 19 72 48 180 64 240 15
61 47 180 69 265 23 85 43 162 45 170 2 8 11 42 20 75 9 33 19 70 22 83 9 42
84 327 95 360 5 18 12 42 15 55 2 12 17 74 34 137 17 63 33 124 35 135 3 11
25 97 50 190 25 94 48 181 51 195 3 14 8 34 11 45 4 11 8 23 9 28 1 4 2 8 4
10 1 1 3 11 5 22 2 11 12 50 21 86 l17 66 1239 0 1238 1 0 -27 c1 -24 1 -177
0 -468 l0 -113 -1195 0 c-1131 0 -1195 -1 -1197 -17 -2 -27 -3 -34 -22 -94 -9
-31 -18 -65 -20 -75 -2 -11 -9 -39 -16 -64 -7 -25 -14 -58 -17 -75 -3 -16 -10
-36 -15 -42 -6 -7 -9 -14 -7 -14 2 -1 637 -3 1412 -4 989 -1 1407 2 1408 9 5
62 0 1358 -5 1363 -9 9 -3014 10 -3029 1z"/>
<path d="M4292 6783 c-28 -91 -35 -116 -38 -128 -1 -5 -11 -44 -23 -85 -12
-41 -24 -82 -27 -90 -3 -14 34 -16 322 -15 179 0 330 -2 334 -5 8 -5 -11 -106
-27 -150 -3 -8 -7 -22 -9 -31 -7 -36 -66 -252 -74 -275 -5 -13 -7 -24 -5 -24
2 0 0 -11 -5 -26 -6 -14 -12 -37 -15 -52 -3 -15 -12 -52 -20 -82 -9 -30 -18
-66 -21 -80 -3 -14 -12 -48 -20 -76 -8 -28 -17 -60 -19 -70 -2 -11 -12 -48
-21 -84 -9 -36 -16 -71 -17 -77 0 -7 -5 -13 -10 -13 -6 0 -8 -3 -5 -6 3 -3 -1
-29 -9 -57 -7 -29 -16 -63 -19 -77 -3 -14 -9 -38 -14 -55 -5 -16 -30 -111 -55
-210 -26 -99 -53 -205 -61 -235 -8 -30 -16 -62 -18 -70 -2 -8 -12 -44 -21 -80
-9 -36 -19 -72 -20 -80 -5 -21 -47 -178 -90 -340 -20 -74 -38 -146 -41 -160
-3 -14 -7 -33 -10 -42 -3 -9 -7 -25 -9 -35 -2 -10 -11 -45 -20 -78 -9 -33 -18
-67 -20 -75 -2 -8 -4 -15 -5 -15 -1 0 -3 -9 -5 -20 -4 -24 -5 -30 -40 -158
-15 -54 -28 -106 -30 -115 -2 -9 -13 -53 -25 -97 -12 -44 -26 -96 -31 -115
-10 -42 -57 -223 -60 -230 -1 -3 -1 -9 0 -13 1 -4 -3 -16 -8 -25 -5 -9 -12
-33 -15 -52 -3 -19 -10 -51 -16 -70 -6 -19 -13 -42 -15 -50 -2 -8 -13 -53 -25
-100 -12 -47 -24 -92 -25 -100 -2 -8 -4 -15 -5 -15 -1 0 -3 -7 -5 -15 -1 -8
-11 -44 -20 -80 -9 -36 -18 -69 -19 -75 -2 -5 -8 -28 -14 -50 -6 -22 -13 -51
-16 -65 -3 -14 -24 -95 -46 -180 -23 -85 -43 -162 -46 -170 -2 -8 -17 -67 -34
-130 -16 -63 -33 -128 -36 -145 -3 -16 -9 -37 -14 -45 -4 -8 -6 -23 -5 -32 2
-10 0 -18 -4 -18 -4 0 -8 -6 -9 -12 0 -7 -3 -22 -5 -33 -6 -22 -67 -254 -71
-270 -2 -5 -6 -28 -11 -50 -4 -22 -12 -46 -18 -52 -5 -7 -7 -13 -4 -13 3 0 0
-21 -8 -47 -8 -25 -12 -49 -10 -52 5 -9 368 -6 382 2 7 4 12 15 11 25 0 16 75
297 89 332 8 20 8 19 17 67 4 24 12 45 17 49 5 3 7 9 4 14 -3 4 2 26 10 49 8
23 14 43 15 46 0 3 0 6 1 8 1 4 7 30 12 57 3 14 10 37 15 51 6 14 13 39 16 55
3 16 12 54 21 84 9 30 17 62 19 70 2 8 27 101 56 205 28 105 54 200 56 212 2
12 9 34 14 48 5 14 7 25 4 25 -4 0 -1 7 6 15 7 9 10 18 7 21 -3 3 -1 18 5 33
8 21 40 134 52 186 12 49 18 72 23 85 3 8 7 22 9 30 1 8 21 83 44 165 22 83
43 157 45 166 2 9 24 91 49 183 25 93 48 178 50 190 2 11 9 32 14 46 5 14 10
27 10 30 0 3 5 25 12 50 7 25 14 52 15 60 3 13 41 155 121 450 8 30 17 62 19
70 2 8 16 58 30 110 51 190 127 474 129 485 2 5 9 30 16 55 7 25 14 50 15 55
2 6 13 46 25 90 12 44 24 88 26 98 5 22 8 32 39 147 38 139 76 283 80 300 2 8
4 15 6 15 1 0 3 9 5 20 1 11 11 50 23 88 11 37 17 67 15 67 -3 0 0 8 5 18 6
11 13 32 16 48 7 36 13 57 16 64 1 3 3 10 4 15 1 6 5 17 8 25 5 12 25 87 61
230 3 8 14 51 26 95 12 44 24 86 25 95 2 8 4 15 5 15 1 0 3 7 5 15 2 8 13 51
25 95 11 44 23 87 25 95 1 8 8 33 14 55 6 22 10 42 9 45 -1 3 3 14 9 25 6 11
13 37 17 58 l7 37 -549 0 -549 0 -21 -67z"/>
<path d="M6635 6678 c-27 -95 -52 -181 -57 -190 -5 -10 -5 -19 -1 -19 4 -1
709 -3 1566 -3 l1557 -2 1 40 c1 23 3 55 4 71 1 17 5 85 9 153 l7 122 -1519 0
-1518 0 -49 -172z"/>
</g>
</svg>
